<svg xmlns="http://www.w3.org/2000/svg" version="1.1" xmlns:xlink="http://www.w3.org/1999/xlink" xmlns:svgjs="http://svgjs.dev/svgjs" viewBox="0 0 2400 800" opacity="0.8"><defs><linearGradient x1="50%" y1="0%" x2="50%" y2="100%" id="sssurf-grad"><stop stop-color="hsl(205, 69%, 60%)" stop-opacity="1" offset="0%"></stop><stop stop-color="hsl(205, 69%, 80%)" stop-opacity="1" offset="100%"></stop></linearGradient></defs><g fill="url(#sssurf-grad)" transform="matrix(1,0,0,1,0,-239.00619506835938)"><path d="M 0 317.01243199847977 Q 450 451.6355435706987 600 321.1635550670426 Q 1050 557.6127998066138 1200 323.885307156994 Q 1650 598.7007399245715 1800 321.6346018865534 Q 2250 571.0313285982832 2400 319.40857343415445 L 2400 800 L 0 800 L 0 323.61126972067484 Z" transform="matrix(1,0,0,1,0,51)" opacity="0.05"></path><path d="M 0 317.01243199847977 Q 450 451.6355435706987 600 321.1635550670426 Q 1050 557.6127998066138 1200 323.885307156994 Q 1650 598.7007399245715 1800 321.6346018865534 Q 2250 571.0313285982832 2400 319.40857343415445 L 2400 800 L 0 800 L 0 323.61126972067484 Z" transform="matrix(1,0,0,1,0,102)" opacity="0.16"></path><path d="M 0 317.01243199847977 Q 450 451.6355435706987 600 321.1635550670426 Q 1050 557.6127998066138 1200 323.885307156994 Q 1650 598.7007399245715 1800 321.6346018865534 Q 2250 571.0313285982832 2400 319.40857343415445 L 2400 800 L 0 800 L 0 323.61126972067484 Z" transform="matrix(1,0,0,1,0,153)" opacity="0.26"></path><path d="M 0 317.01243199847977 Q 450 451.6355435706987 600 321.1635550670426 Q 1050 557.6127998066138 1200 323.885307156994 Q 1650 598.7007399245715 1800 321.6346018865534 Q 2250 571.0313285982832 2400 319.40857343415445 L 2400 800 L 0 800 L 0 323.61126972067484 Z" transform="matrix(1,0,0,1,0,204)" opacity="0.37"></path><path d="M 0 317.01243199847977 Q 450 451.6355435706987 600 321.1635550670426 Q 1050 557.6127998066138 1200 323.885307156994 Q 1650 598.7007399245715 1800 321.6346018865534 Q 2250 571.0313285982832 2400 319.40857343415445 L 2400 800 L 0 800 L 0 323.61126972067484 Z" transform="matrix(1,0,0,1,0,255)" opacity="0.47"></path><path d="M 0 317.01243199847977 Q 450 451.6355435706987 600 321.1635550670426 Q 1050 557.6127998066138 1200 323.885307156994 Q 1650 598.7007399245715 1800 321.6346018865534 Q 2250 571.0313285982832 2400 319.40857343415445 L 2400 800 L 0 800 L 0 323.61126972067484 Z" transform="matrix(1,0,0,1,0,306)" opacity="0.58"></path><path d="M 0 317.01243199847977 Q 450 451.6355435706987 600 321.1635550670426 Q 1050 557.6127998066138 1200 323.885307156994 Q 1650 598.7007399245715 1800 321.6346018865534 Q 2250 571.0313285982832 2400 319.40857343415445 L 2400 800 L 0 800 L 0 323.61126972067484 Z" transform="matrix(1,0,0,1,0,357)" opacity="0.68"></path><path d="M 0 317.01243199847977 Q 450 451.6355435706987 600 321.1635550670426 Q 1050 557.6127998066138 1200 323.885307156994 Q 1650 598.7007399245715 1800 321.6346018865534 Q 2250 571.0313285982832 2400 319.40857343415445 L 2400 800 L 0 800 L 0 323.61126972067484 Z" transform="matrix(1,0,0,1,0,408)" opacity="0.79"></path><path d="M 0 317.01243199847977 Q 450 451.6355435706987 600 321.1635550670426 Q 1050 557.6127998066138 1200 323.885307156994 Q 1650 598.7007399245715 1800 321.6346018865534 Q 2250 571.0313285982832 2400 319.40857343415445 L 2400 800 L 0 800 L 0 323.61126972067484 Z" transform="matrix(1,0,0,1,0,459)" opacity="0.89"></path><path d="M 0 317.01243199847977 Q 450 451.6355435706987 600 321.1635550670426 Q 1050 557.6127998066138 1200 323.885307156994 Q 1650 598.7007399245715 1800 321.6346018865534 Q 2250 571.0313285982832 2400 319.40857343415445 L 2400 800 L 0 800 L 0 323.61126972067484 Z" transform="matrix(1,0,0,1,0,510)" opacity="1.00"></path></g></svg>